<svg xmlns="http://www.w3.org/2000/svg" xmlns:xlink="http://www.w3.org/1999/xlink" contentStyleType="text/css" data-diagram-type="ACTIVITY" height="914px" preserveAspectRatio="none" style="width:770px;height:914px;background:#FFFFFF;" version="1.1" viewBox="0 0 770 914" width="770px" zoomAndPan="magnify"><defs/><g><ellipse cx="383.4084" cy="25" fill="#222222" rx="10" ry="10" style="stroke:#222222;stroke-width:1;"/><rect fill="#E0F2FE" height="47.9375" rx="6" ry="6" style="stroke:#475569;stroke-width:0.5;" width="92.0005" x="337.4081" y="55"/><text fill="#111827" font-family="sans-serif" font-size="12" lengthAdjust="spacing" textLength="72.0005" x="347.4081" y="76.1387">&#36873;&#25321;&#24403;&#21069;&#21306;&#22495;</text><text fill="#111827" font-family="sans-serif" font-size="12" lengthAdjust="spacing" textLength="55.541" x="347.4081" y="90.1074">ActModel</text><rect fill="#DBEAFE" height="47.9375" rx="6" ry="6" style="stroke:#475569;stroke-width:0.5;" width="274.0869" x="246.3649" y="122.9375"/><text fill="#111827" font-family="sans-serif" font-size="12" lengthAdjust="spacing" textLength="72.0005" x="256.3649" y="144.0762">&#35835;&#21462;&#21306;&#22495;&#37197;&#32622;</text><text fill="#111827" font-family="sans-serif" font-size="12" lengthAdjust="spacing" textLength="254.0869" x="256.3649" y="158.0449">&#25151;&#38388;&#25968; / &#38382;&#21495;&#25968; / &#25112;&#26007;&#27744; / Boss &#27744; / AllEvents</text><rect fill="#555555" height="6" rx="2.5" ry="2.5" style="stroke:#555555;stroke-width:1;" width="734.8167" x="16" y="190.875"/><rect fill="#DCFCE7" height="47.9375" rx="6" ry="6" style="stroke:#475569;stroke-width:0.5;" width="275.7209" x="28" y="216.875"/><text fill="#111827" font-family="sans-serif" font-size="12" lengthAdjust="spacing" textLength="60.0005" x="38" y="238.0137">&#21512;&#24182;&#20107;&#20214;&#27744;</text><text fill="#111827" font-family="sans-serif" font-size="12" lengthAdjust="spacing" textLength="255.7209" x="38" y="251.9824">&#21306;&#22495; AllEvents + ModelDb.AllSharedEvents</text><rect fill="#F0FDF4" height="33.9688" rx="6" ry="6" style="stroke:#475569;stroke-width:0.5;" width="104.0006" x="113.8601" y="298.7813"/><text fill="#111827" font-family="sans-serif" font-size="12" lengthAdjust="spacing" textLength="84.0006" x="123.8601" y="319.9199">&#36807;&#28388;&#26410;&#35299;&#38145;&#20107;&#20214;</text><rect fill="#BBF7D0" height="33.9688" rx="6" ry="6" style="stroke:#475569;stroke-width:0.5;" width="152.001" x="89.8599" y="352.75"/><text fill="#111827" font-family="sans-serif" font-size="12" lengthAdjust="spacing" textLength="132.001" x="99.8599" y="373.8887">&#27927;&#29260;&#21518;&#20889;&#20837;&#26412;&#24149;&#20107;&#20214;&#38431;&#21015;</text><rect fill="#FEF3C7" height="47.9375" rx="6" ry="6" style="stroke:#475569;stroke-width:0.5;" width="179.0945" x="331.7209" y="284.8125"/><text fill="#111827" font-family="sans-serif" font-size="12" lengthAdjust="spacing" textLength="72.0005" x="341.7209" y="305.9512">&#29983;&#25104;&#36973;&#36935;&#38431;&#21015;</text><text fill="#111827" font-family="sans-serif" font-size="12" lengthAdjust="spacing" textLength="159.0945" x="341.7209" y="319.9199">&#26222;&#36890;&#25112;&#26007; / &#31934;&#33521; / Boss / &#20808;&#27665;</text><rect fill="#FFE4E6" height="47.9375" rx="6" ry="6" style="stroke:#475569;stroke-width:0.5;" width="200.0014" x="538.8154" y="284.8125"/><text fill="#111827" font-family="sans-serif" font-size="12" lengthAdjust="spacing" textLength="99.6387" x="548.8154" y="305.9512">StandardActMap</text><text fill="#111827" font-family="sans-serif" font-size="12" lengthAdjust="spacing" textLength="180.0014" x="548.8154" y="319.9199">&#25353;&#21306;&#22495;&#25151;&#38388;&#25968;&#21644;&#33410;&#28857;&#35268;&#21017;&#29983;&#25104;&#22320;&#22270;</text><rect fill="#555555" height="6" rx="2.5" ry="2.5" style="stroke:#555555;stroke-width:1;" width="734.8167" x="16" y="406.7188"/><rect fill="#F8FAFC" height="33.9688" rx="6" ry="6" style="stroke:#475569;stroke-width:0.5;" width="152.001" x="307.4079" y="432.7188"/><text fill="#111827" font-family="sans-serif" font-size="12" lengthAdjust="spacing" textLength="132.001" x="317.4079" y="453.8574">&#29609;&#23478;&#36873;&#25321;&#36335;&#32447;&#24182;&#36827;&#20837;&#25151;&#38388;</text><polygon fill="#F1F1F1" points="352.9894,486.6875,413.8274,486.6875,425.8274,498.6875,413.8274,510.6875,352.9894,510.6875,340.9894,498.6875,352.9894,486.6875" style="stroke:#475569;stroke-width:0.5;"/><text fill="#111827" font-family="sans-serif" font-size="11" lengthAdjust="spacing" textLength="60.838" x="352.9894" y="502.4956">&#25151;&#38388;&#26159;&#38382;&#21495;?</text><text fill="#334155" font-family="sans-serif" font-size="11" lengthAdjust="spacing" textLength="10.9999" x="329.9894" y="496.0933">&#26159;</text><text fill="#334155" font-family="sans-serif" font-size="11" lengthAdjust="spacing" textLength="43.9997" x="425.8274" y="496.0933">&#19981;&#26159;&#38382;&#21495;</text><rect fill="#EDE9FE" height="47.9375" rx="6" ry="6" style="stroke:#475569;stroke-width:0.5;" width="162.1836" x="146.5131" y="520.6875"/><text fill="#111827" font-family="sans-serif" font-size="12" lengthAdjust="spacing" textLength="142.1836" x="156.5131" y="541.8262">UnknownMapPointOdds</text><text fill="#111827" font-family="sans-serif" font-size="12" lengthAdjust="spacing" textLength="70.7582" x="156.5131" y="555.7949">roll &#25151;&#38388;&#31867;&#22411;</text><polygon fill="#F1F1F1" points="197.7552,588.625,257.4546,588.625,269.4546,600.625,257.4546,612.625,197.7552,612.625,185.7552,600.625,197.7552,588.625" style="stroke:#475569;stroke-width:0.5;"/><text fill="#111827" font-family="sans-serif" font-size="11" lengthAdjust="spacing" textLength="59.6995" x="197.7552" y="604.4331">roll &#25104;&#20107;&#20214;?</text><text fill="#334155" font-family="sans-serif" font-size="11" lengthAdjust="spacing" textLength="21.9998" x="163.7553" y="598.0308">&#20107;&#20214;</text><text fill="#334155" font-family="sans-serif" font-size="11" lengthAdjust="spacing" textLength="32.9998" x="269.4546" y="598.0308">&#38750;&#20107;&#20214;</text><rect fill="#D8B4FE" height="47.9375" rx="6" ry="6" style="stroke:#475569;stroke-width:0.5;" width="116.0007" x="80.8502" y="622.625"/><text fill="#111827" font-family="sans-serif" font-size="12" lengthAdjust="spacing" textLength="84.0006" x="90.8502" y="643.7637">&#20174;&#26412;&#24149;&#20107;&#20214;&#38431;&#21015;</text><text fill="#111827" font-family="sans-serif" font-size="12" lengthAdjust="spacing" textLength="96.0007" x="90.8502" y="657.7324">&#21462;&#19979;&#19968;&#20010;&#26377;&#25928;&#20107;&#20214;</text><rect fill="#C4B5FD" height="47.9375" rx="6" ry="6" style="stroke:#475569;stroke-width:0.5;" width="104.0006" x="86.8502" y="690.5625"/><text fill="#111827" font-family="sans-serif" font-size="12" lengthAdjust="spacing" textLength="84.0006" x="96.8502" y="711.7012">&#35760;&#24405;&#24050;&#35775;&#38382;&#20107;&#20214;</text><text fill="#111827" font-family="sans-serif" font-size="12" lengthAdjust="spacing" textLength="72.0005" x="96.8502" y="725.6699">&#23613;&#37327;&#36991;&#20813;&#37325;&#22797;</text><rect fill="#FED7AA" height="33.9688" rx="6" ry="6" style="stroke:#475569;stroke-width:0.5;" width="199.0167" x="216.8509" y="622.625"/><text fill="#111827" font-family="sans-serif" font-size="12" lengthAdjust="spacing" textLength="179.0167" x="226.8509" y="643.7637">&#36827;&#20837;&#26222;&#36890;&#25112;&#26007; / &#21830;&#24215; / &#23453;&#31665; / &#31934;&#33521;</text><polygon fill="#F1F1F1" points="227.6049,744.5,239.6049,756.5,227.6049,768.5,215.6049,756.5,227.6049,744.5" style="stroke:#475569;stroke-width:0.5;"/><rect fill="#FECACA" height="47.9375" rx="6" ry="6" style="stroke:#475569;stroke-width:0.5;" width="186.6884" x="445.8676" y="520.6875"/><text fill="#111827" font-family="sans-serif" font-size="12" lengthAdjust="spacing" textLength="84.0006" x="455.8676" y="541.8262">&#25353;&#33410;&#28857;&#31867;&#22411;&#36827;&#20837;</text><text fill="#111827" font-family="sans-serif" font-size="12" lengthAdjust="spacing" textLength="166.6884" x="455.8676" y="555.7949">&#25112;&#26007; / &#31934;&#33521; / &#21830;&#24215; / &#23453;&#31665; / &#20241;&#24687;</text><polygon fill="#F1F1F1" points="383.4084,774.5,395.4084,786.5,383.4084,798.5,371.4084,786.5,383.4084,774.5" style="stroke:#475569;stroke-width:0.5;"/><rect fill="#ECFCCB" height="33.9688" rx="6" ry="6" style="stroke:#475569;stroke-width:0.5;" width="364.9784" x="200.9192" y="818.5"/><text fill="#111827" font-family="sans-serif" font-size="12" lengthAdjust="spacing" textLength="344.9784" x="210.9192" y="839.6387">&#26368;&#32456;&#20307;&#39564; = &#21306;&#22495;&#37197;&#32622; + &#36335;&#32447;&#36873;&#25321; + &#35299;&#38145;&#29366;&#24577; + &#24403;&#21069; RNG &#29366;&#24577;</text><ellipse cx="383.4084" cy="883.4688" fill="none" rx="11" ry="11" style="stroke:#222222;stroke-width:1;"/><ellipse cx="383.4084" cy="883.4688" fill="#222222" rx="6" ry="6" style="stroke:#222222;stroke-width:1;"/><line style="stroke:#64748B;stroke-width:1;" x1="383.4084" x2="383.4084" y1="35" y2="55"/><polygon fill="#64748B" points="379.4084,45,383.4084,55,387.4084,45,383.4084,49" style="stroke:#64748B;stroke-width:1;"/><line style="stroke:#64748B;stroke-width:1;" x1="383.4084" x2="383.4084" y1="102.9375" y2="122.9375"/><polygon fill="#64748B" points="379.4084,112.9375,383.4084,122.9375,387.4084,112.9375,383.4084,116.9375" style="stroke:#64748B;stroke-width:1;"/><line style="stroke:#64748B;stroke-width:1;" x1="165.8604" x2="165.8604" y1="264.8125" y2="298.7813"/><polygon fill="#64748B" points="161.8604,288.7813,165.8604,298.7813,169.8604,288.7813,165.8604,292.7813" style="stroke:#64748B;stroke-width:1;"/><line style="stroke:#64748B;stroke-width:1;" x1="165.8604" x2="165.8604" y1="332.75" y2="352.75"/><polygon fill="#64748B" points="161.8604,342.75,165.8604,352.75,169.8604,342.75,165.8604,346.75" style="stroke:#64748B;stroke-width:1;"/><line style="stroke:#64748B;stroke-width:1;" x1="165.8604" x2="165.8604" y1="196.875" y2="216.875"/><polygon fill="#64748B" points="161.8604,206.875,165.8604,216.875,169.8604,206.875,165.8604,210.875" style="stroke:#64748B;stroke-width:1;"/><line style="stroke:#64748B;stroke-width:1;" x1="421.2681" x2="421.2681" y1="196.875" y2="284.8125"/><polygon fill="#64748B" points="417.2681,274.8125,421.2681,284.8125,425.2681,274.8125,421.2681,278.8125" style="stroke:#64748B;stroke-width:1;"/><line style="stroke:#64748B;stroke-width:1;" x1="638.8161" x2="638.8161" y1="196.875" y2="284.8125"/><polygon fill="#64748B" points="634.8161,274.8125,638.8161,284.8125,642.8161,274.8125,638.8161,278.8125" style="stroke:#64748B;stroke-width:1;"/><line style="stroke:#64748B;stroke-width:1;" x1="165.8604" x2="165.8604" y1="386.7188" y2="406.7188"/><polygon fill="#64748B" points="161.8604,396.7188,165.8604,406.7188,169.8604,396.7188,165.8604,400.7188" style="stroke:#64748B;stroke-width:1;"/><line style="stroke:#64748B;stroke-width:1;" x1="421.2681" x2="421.2681" y1="332.75" y2="406.7188"/><polygon fill="#64748B" points="417.2681,396.7188,421.2681,406.7188,425.2681,396.7188,421.2681,400.7188" style="stroke:#64748B;stroke-width:1;"/><line style="stroke:#64748B;stroke-width:1;" x1="638.8161" x2="638.8161" y1="332.75" y2="406.7188"/><polygon fill="#64748B" points="634.8161,396.7188,638.8161,406.7188,642.8161,396.7188,638.8161,400.7188" style="stroke:#64748B;stroke-width:1;"/><line style="stroke:#64748B;stroke-width:1;" x1="383.4084" x2="383.4084" y1="170.875" y2="190.875"/><polygon fill="#64748B" points="379.4084,180.875,383.4084,190.875,387.4084,180.875,383.4084,184.875" style="stroke:#64748B;stroke-width:1;"/><line style="stroke:#64748B;stroke-width:1;" x1="383.4084" x2="383.4084" y1="412.7188" y2="432.7188"/><polygon fill="#64748B" points="379.4084,422.7188,383.4084,432.7188,387.4084,422.7188,383.4084,426.7188" style="stroke:#64748B;stroke-width:1;"/><line style="stroke:#64748B;stroke-width:1;" x1="138.8505" x2="138.8505" y1="670.5625" y2="690.5625"/><polygon fill="#64748B" points="134.8505,680.5625,138.8505,690.5625,142.8505,680.5625,138.8505,684.5625" style="stroke:#64748B;stroke-width:1;"/><line style="stroke:#64748B;stroke-width:1;" x1="185.7552" x2="138.8505" y1="600.625" y2="600.625"/><line style="stroke:#64748B;stroke-width:1;" x1="138.8505" x2="138.8505" y1="600.625" y2="622.625"/><polygon fill="#64748B" points="134.8505,612.625,138.8505,622.625,142.8505,612.625,138.8505,616.625" style="stroke:#64748B;stroke-width:1;"/><line style="stroke:#64748B;stroke-width:1;" x1="269.4546" x2="316.3593" y1="600.625" y2="600.625"/><line style="stroke:#64748B;stroke-width:1;" x1="316.3593" x2="316.3593" y1="600.625" y2="622.625"/><polygon fill="#64748B" points="312.3593,612.625,316.3593,622.625,320.3593,612.625,316.3593,616.625" style="stroke:#64748B;stroke-width:1;"/><line style="stroke:#64748B;stroke-width:1;" x1="138.8505" x2="138.8505" y1="738.5" y2="756.5"/><line style="stroke:#64748B;stroke-width:1;" x1="138.8505" x2="215.6049" y1="756.5" y2="756.5"/><polygon fill="#64748B" points="205.6049,752.5,215.6049,756.5,205.6049,760.5,209.6049,756.5" style="stroke:#64748B;stroke-width:1;"/><line style="stroke:#64748B;stroke-width:1;" x1="316.3593" x2="316.3593" y1="656.5938" y2="756.5"/><line style="stroke:#64748B;stroke-width:1;" x1="316.3593" x2="239.6049" y1="756.5" y2="756.5"/><polygon fill="#64748B" points="249.6049,752.5,239.6049,756.5,249.6049,760.5,245.6049,756.5" style="stroke:#64748B;stroke-width:1;"/><line style="stroke:#64748B;stroke-width:1;" x1="227.6049" x2="227.6049" y1="568.625" y2="588.625"/><polygon fill="#64748B" points="223.6049,578.625,227.6049,588.625,231.6049,578.625,227.6049,582.625" style="stroke:#64748B;stroke-width:1;"/><line style="stroke:#64748B;stroke-width:1;" x1="340.9894" x2="227.6049" y1="498.6875" y2="498.6875"/><line style="stroke:#64748B;stroke-width:1;" x1="227.6049" x2="227.6049" y1="498.6875" y2="520.6875"/><polygon fill="#64748B" points="223.6049,510.6875,227.6049,520.6875,231.6049,510.6875,227.6049,514.6875" style="stroke:#64748B;stroke-width:1;"/><line style="stroke:#64748B;stroke-width:1;" x1="425.8274" x2="539.2118" y1="498.6875" y2="498.6875"/><line style="stroke:#64748B;stroke-width:1;" x1="539.2118" x2="539.2118" y1="498.6875" y2="520.6875"/><polygon fill="#64748B" points="535.2118,510.6875,539.2118,520.6875,543.2118,510.6875,539.2118,514.6875" style="stroke:#64748B;stroke-width:1;"/><line style="stroke:#64748B;stroke-width:1;" x1="227.6049" x2="227.6049" y1="768.5" y2="786.5"/><line style="stroke:#64748B;stroke-width:1;" x1="227.6049" x2="371.4084" y1="786.5" y2="786.5"/><polygon fill="#64748B" points="361.4084,782.5,371.4084,786.5,361.4084,790.5,365.4084,786.5" style="stroke:#64748B;stroke-width:1;"/><line style="stroke:#64748B;stroke-width:1;" x1="539.2118" x2="539.2118" y1="568.625" y2="786.5"/><line style="stroke:#64748B;stroke-width:1;" x1="539.2118" x2="395.4084" y1="786.5" y2="786.5"/><polygon fill="#64748B" points="405.4084,782.5,395.4084,786.5,405.4084,790.5,401.4084,786.5" style="stroke:#64748B;stroke-width:1;"/><line style="stroke:#64748B;stroke-width:1;" x1="383.4084" x2="383.4084" y1="466.6875" y2="486.6875"/><polygon fill="#64748B" points="379.4084,476.6875,383.4084,486.6875,387.4084,476.6875,383.4084,480.6875" style="stroke:#64748B;stroke-width:1;"/><line style="stroke:#64748B;stroke-width:1;" x1="383.4084" x2="383.4084" y1="798.5" y2="818.5"/><polygon fill="#64748B" points="379.4084,808.5,383.4084,818.5,387.4084,808.5,383.4084,812.5" style="stroke:#64748B;stroke-width:1;"/><line style="stroke:#64748B;stroke-width:1;" x1="383.4084" x2="383.4084" y1="852.4688" y2="872.4688"/><polygon fill="#64748B" points="379.4084,862.4688,383.4084,872.4688,387.4084,862.4688,383.4084,866.4688" style="stroke:#64748B;stroke-width:1;"/></g></svg>